<mxfile host="app.diagrams.net" modified="2024-01-17T12:39:52.745Z" agent="Mozilla/5.0 (Windows NT 10.0; Win64; x64) AppleWebKit/537.36 (KHTML, like Gecko) Chrome/119.0.0.0 Safari/537.36 OPR/105.0.0.0" etag="BCwbTZTx-hJXxsMk3gsp" version="22.1.20" type="device">
  <diagram name="Page-1" id="2cc2dc42-3aac-f2a9-1cec-7a8b7cbee084">
    <mxGraphModel dx="1383" dy="721" grid="1" gridSize="10" guides="1" tooltips="1" connect="1" arrows="1" fold="1" page="1" pageScale="1" pageWidth="1100" pageHeight="850" background="none" math="0" shadow="0">
      <root>
        <mxCell id="0" />
        <mxCell id="1" parent="0" />
        <mxCell id="7026571954dc6520-1" value="j" style="strokeWidth=1;shadow=0;dashed=0;align=center;html=1;shape=mxgraph.mockup.containers.browserWindow;rSize=0;strokeColor=#666666;mainText=,;recursiveResize=0;rounded=0;labelBackgroundColor=none;fontFamily=Verdana;fontSize=12" parent="1" vertex="1">
          <mxGeometry x="13" y="100" width="1075" height="915" as="geometry" />
        </mxCell>
        <mxCell id="t-0MSepDz_Ys8Jjh8UIl-3" value="" style="rounded=0;whiteSpace=wrap;html=1;" vertex="1" parent="7026571954dc6520-1">
          <mxGeometry x="11" y="405" width="523" height="200" as="geometry" />
        </mxCell>
        <mxCell id="DlKppZ8F-c1nNK-8nuvz-11" value="" style="rounded=0;whiteSpace=wrap;html=1;" parent="7026571954dc6520-1" vertex="1">
          <mxGeometry x="537" y="190" width="523" height="200" as="geometry" />
        </mxCell>
        <mxCell id="7026571954dc6520-2" value="Page 3 : cv" style="strokeWidth=1;shadow=0;dashed=0;align=center;html=1;shape=mxgraph.mockup.containers.anchor;fontSize=17;fontColor=#666666;align=left;" parent="7026571954dc6520-1" vertex="1">
          <mxGeometry x="60" y="12" width="110" height="26" as="geometry" />
        </mxCell>
        <mxCell id="7026571954dc6520-3" value="http://127.0.0.1:8000/cv" style="strokeWidth=1;shadow=0;dashed=0;align=center;html=1;shape=mxgraph.mockup.containers.anchor;rSize=0;fontSize=17;fontColor=#666666;align=left;" parent="7026571954dc6520-1" vertex="1">
          <mxGeometry x="130" y="60" width="250" height="26" as="geometry" />
        </mxCell>
        <mxCell id="7026571954dc6520-4" value="&lt;font style=&quot;font-size: 24px;&quot;&gt;Titre:&lt;font style=&quot;font-size: 24px;&quot;&gt;Poste de travail cherché&lt;/font&gt;&lt;/font&gt;" style="text;html=1;points=[];align=left;verticalAlign=top;spacingTop=-4;fontSize=30;fontFamily=Verdana" parent="7026571954dc6520-1" vertex="1">
          <mxGeometry x="30" y="190" width="340" height="50" as="geometry" />
        </mxCell>
        <mxCell id="7026571954dc6520-6" value="Section 1" style="text;html=1;points=[];align=left;verticalAlign=top;spacingTop=-4;fontSize=15;fontFamily=Verdana" parent="7026571954dc6520-1" vertex="1">
          <mxGeometry x="537" y="190" width="93" height="20" as="geometry" />
        </mxCell>
        <mxCell id="7026571954dc6520-7" value="&lt;font style=&quot;font-size: 14px;&quot;&gt;Description de moi blablablal&lt;br&gt;je suis ...&lt;br&gt;j&#39;aimerais ....&lt;br&gt;j&#39;ai ....&lt;br&gt;&lt;/font&gt;" style="text;html=1;points=[];align=left;verticalAlign=top;spacingTop=-4;fontSize=12;fontFamily=Verdana;whiteSpace=wrap;" parent="7026571954dc6520-1" vertex="1">
          <mxGeometry x="30" y="280" width="240" height="75" as="geometry" />
        </mxCell>
        <mxCell id="DlKppZ8F-c1nNK-8nuvz-2" value="&lt;font style=&quot;font-size: 16px;&quot;&gt;Photo moi&lt;/font&gt;" style="ellipse;whiteSpace=wrap;html=1;aspect=fixed;" parent="7026571954dc6520-1" vertex="1">
          <mxGeometry x="370" y="230" width="120" height="120" as="geometry" />
        </mxCell>
        <mxCell id="DlKppZ8F-c1nNK-8nuvz-4" value="" style="rounded=0;whiteSpace=wrap;html=1;" parent="7026571954dc6520-1" vertex="1">
          <mxGeometry y="105" width="1070" height="75" as="geometry" />
        </mxCell>
        <mxCell id="7026571954dc6520-14" value="Nom entreprise" style="strokeWidth=1;shadow=0;dashed=0;align=center;html=1;shape=mxgraph.mockup.forms.searchBox;strokeColor=#999999;mainText=;strokeColor2=#008cff;fontColor=#666666;fontSize=17;align=left;spacingLeft=3;rounded=0;labelBackgroundColor=none;" parent="7026571954dc6520-1" vertex="1">
          <mxGeometry x="755" y="127.5" width="145" height="30" as="geometry" />
        </mxCell>
        <mxCell id="7026571954dc6520-12" value="Bouton (Soumettre)" style="text;html=1;points=[];align=left;verticalAlign=top;spacingTop=-4;fontSize=15;fontFamily=Verdana" parent="7026571954dc6520-1" vertex="1">
          <mxGeometry x="915" y="131.25" width="170" height="22.5" as="geometry" />
        </mxCell>
        <mxCell id="DlKppZ8F-c1nNK-8nuvz-5" value="&lt;font style=&quot;font-size: 32px;&quot;&gt;Navbar&lt;/font&gt;" style="rounded=0;whiteSpace=wrap;html=1;" parent="7026571954dc6520-1" vertex="1">
          <mxGeometry x="5" y="112.5" width="145" height="60" as="geometry" />
        </mxCell>
        <mxCell id="DlKppZ8F-c1nNK-8nuvz-6" value="" style="triangle;whiteSpace=wrap;html=1;rotation=90;fillColor=#647687;fontColor=#ffffff;strokeColor=#314354;" parent="7026571954dc6520-1" vertex="1">
          <mxGeometry x="565" y="137.5" width="10" height="10" as="geometry" />
        </mxCell>
        <mxCell id="DlKppZ8F-c1nNK-8nuvz-7" value="&lt;font style=&quot;font-size: 20px;&quot;&gt;DropDown&lt;/font&gt;" style="rounded=0;whiteSpace=wrap;html=1;" parent="7026571954dc6520-1" vertex="1">
          <mxGeometry x="463" y="112.5" width="102" height="60" as="geometry" />
        </mxCell>
        <mxCell id="DlKppZ8F-c1nNK-8nuvz-8" value="&lt;font style=&quot;font-size: 22px;&quot;&gt;Page supl 1&lt;/font&gt;" style="rounded=0;whiteSpace=wrap;html=1;" parent="7026571954dc6520-1" vertex="1">
          <mxGeometry x="177" y="112.5" width="120" height="60" as="geometry" />
        </mxCell>
        <mxCell id="DlKppZ8F-c1nNK-8nuvz-9" value="&lt;font style=&quot;font-size: 22px;&quot;&gt;Page supl 2 (cv)&lt;/font&gt;" style="rounded=0;whiteSpace=wrap;html=1;" parent="7026571954dc6520-1" vertex="1">
          <mxGeometry x="315" y="112.5" width="120" height="60" as="geometry" />
        </mxCell>
        <mxCell id="DlKppZ8F-c1nNK-8nuvz-10" value="&lt;font style=&quot;font-size: 20px;&quot;&gt;Nom prénom age&amp;nbsp;&lt;/font&gt;" style="text;html=1;points=[];align=left;verticalAlign=top;spacingTop=-4;fontSize=12;fontFamily=Verdana;whiteSpace=wrap;" parent="7026571954dc6520-1" vertex="1">
          <mxGeometry x="30" y="240" width="240" height="40" as="geometry" />
        </mxCell>
        <mxCell id="DlKppZ8F-c1nNK-8nuvz-12" value="Section 2" style="text;html=1;points=[];align=left;verticalAlign=top;spacingTop=-4;fontSize=15;fontFamily=Verdana" parent="7026571954dc6520-1" vertex="1">
          <mxGeometry x="14" y="405" width="170" height="30" as="geometry" />
        </mxCell>
        <mxCell id="t-0MSepDz_Ys8Jjh8UIl-1" value="&lt;font style=&quot;font-size: 18px;&quot;&gt;Titre :&amp;nbsp;&lt;/font&gt;" style="text;html=1;strokeColor=none;fillColor=none;align=center;verticalAlign=middle;whiteSpace=wrap;rounded=0;" vertex="1" parent="7026571954dc6520-1">
          <mxGeometry x="540" y="210" width="60" height="30" as="geometry" />
        </mxCell>
        <mxCell id="t-0MSepDz_Ys8Jjh8UIl-2" value="- Permis&lt;br&gt;- Langues&lt;br&gt;- coordonnées&lt;br&gt;- adresses" style="text;html=1;points=[];align=left;verticalAlign=top;spacingTop=-4;fontSize=15;fontFamily=Verdana" vertex="1" parent="7026571954dc6520-1">
          <mxGeometry x="547" y="255" width="233" height="135" as="geometry" />
        </mxCell>
        <mxCell id="t-0MSepDz_Ys8Jjh8UIl-4" value="&lt;font style=&quot;font-size: 18px;&quot;&gt;Titre : savoir être&lt;/font&gt;" style="text;html=1;points=[];align=left;verticalAlign=top;spacingTop=-4;fontSize=15;fontFamily=Verdana" vertex="1" parent="7026571954dc6520-1">
          <mxGeometry x="14" y="425" width="170" height="30" as="geometry" />
        </mxCell>
        <mxCell id="t-0MSepDz_Ys8Jjh8UIl-6" value="Chaque savoir être avec son image associés:&lt;br&gt;&lt;br&gt;blabla : img&amp;nbsp;&lt;br&gt;&lt;br&gt;blabla : img&lt;br&gt;&lt;br&gt;" style="text;html=1;points=[];align=left;verticalAlign=top;spacingTop=-4;fontSize=15;fontFamily=Verdana" vertex="1" parent="7026571954dc6520-1">
          <mxGeometry x="14" y="455" width="513" height="145" as="geometry" />
        </mxCell>
        <mxCell id="t-0MSepDz_Ys8Jjh8UIl-8" value="" style="rounded=0;whiteSpace=wrap;html=1;" vertex="1" parent="7026571954dc6520-1">
          <mxGeometry x="537" y="405" width="523" height="200" as="geometry" />
        </mxCell>
        <mxCell id="t-0MSepDz_Ys8Jjh8UIl-9" value="Section 3" style="text;html=1;points=[];align=left;verticalAlign=top;spacingTop=-4;fontSize=15;fontFamily=Verdana" vertex="1" parent="7026571954dc6520-1">
          <mxGeometry x="540" y="405" width="170" height="30" as="geometry" />
        </mxCell>
        <mxCell id="t-0MSepDz_Ys8Jjh8UIl-10" value="&lt;font style=&quot;font-size: 18px;&quot;&gt;Titre : compétences&lt;/font&gt;" style="text;html=1;points=[];align=left;verticalAlign=top;spacingTop=-4;fontSize=15;fontFamily=Verdana" vertex="1" parent="7026571954dc6520-1">
          <mxGeometry x="540" y="425" width="170" height="30" as="geometry" />
        </mxCell>
        <mxCell id="t-0MSepDz_Ys8Jjh8UIl-11" value="sous titre 1&amp;nbsp;&lt;br&gt;-&lt;br&gt;-&lt;br&gt;sous titre 2&lt;br&gt;-&lt;br&gt;-&lt;br&gt;" style="text;html=1;points=[];align=left;verticalAlign=top;spacingTop=-4;fontSize=15;fontFamily=Verdana" vertex="1" parent="7026571954dc6520-1">
          <mxGeometry x="540" y="455" width="513" height="145" as="geometry" />
        </mxCell>
        <mxCell id="t-0MSepDz_Ys8Jjh8UIl-19" value="" style="rounded=0;whiteSpace=wrap;html=1;" vertex="1" parent="7026571954dc6520-1">
          <mxGeometry x="14" y="615" width="523" height="200" as="geometry" />
        </mxCell>
        <mxCell id="t-0MSepDz_Ys8Jjh8UIl-20" value="Section 4" style="text;html=1;points=[];align=left;verticalAlign=top;spacingTop=-4;fontSize=15;fontFamily=Verdana" vertex="1" parent="7026571954dc6520-1">
          <mxGeometry x="17" y="615" width="170" height="30" as="geometry" />
        </mxCell>
        <mxCell id="t-0MSepDz_Ys8Jjh8UIl-21" value="&lt;font style=&quot;font-size: 18px;&quot;&gt;Titre : Expérience pro&lt;/font&gt;" style="text;html=1;points=[];align=left;verticalAlign=top;spacingTop=-4;fontSize=15;fontFamily=Verdana" vertex="1" parent="7026571954dc6520-1">
          <mxGeometry x="17" y="635" width="170" height="30" as="geometry" />
        </mxCell>
        <mxCell id="t-0MSepDz_Ys8Jjh8UIl-22" value="Expérience 1 en sous titre :&lt;br&gt;- ce que j&#39;ai fais&amp;nbsp;&lt;br&gt;- ce que j&#39;ai fais&lt;br&gt;Expérience 2 en sous titre :&lt;br style=&quot;border-color: var(--border-color);&quot;&gt;- ce que j&#39;ai fais&amp;nbsp;&lt;br style=&quot;border-color: var(--border-color);&quot;&gt;- ce que j&#39;ai fais" style="text;html=1;points=[];align=left;verticalAlign=top;spacingTop=-4;fontSize=15;fontFamily=Verdana" vertex="1" parent="7026571954dc6520-1">
          <mxGeometry x="17" y="665" width="513" height="145" as="geometry" />
        </mxCell>
        <mxCell id="t-0MSepDz_Ys8Jjh8UIl-23" value="" style="rounded=0;whiteSpace=wrap;html=1;" vertex="1" parent="7026571954dc6520-1">
          <mxGeometry x="540" y="615" width="523" height="200" as="geometry" />
        </mxCell>
        <mxCell id="t-0MSepDz_Ys8Jjh8UIl-24" value="Section 5" style="text;html=1;points=[];align=left;verticalAlign=top;spacingTop=-4;fontSize=15;fontFamily=Verdana" vertex="1" parent="7026571954dc6520-1">
          <mxGeometry x="543" y="615" width="170" height="30" as="geometry" />
        </mxCell>
        <mxCell id="t-0MSepDz_Ys8Jjh8UIl-25" value="&lt;font style=&quot;font-size: 18px;&quot;&gt;Titre : Formation&lt;/font&gt;" style="text;html=1;points=[];align=left;verticalAlign=top;spacingTop=-4;fontSize=15;fontFamily=Verdana" vertex="1" parent="7026571954dc6520-1">
          <mxGeometry x="543" y="635" width="170" height="30" as="geometry" />
        </mxCell>
        <mxCell id="t-0MSepDz_Ys8Jjh8UIl-26" value="Sous titre 1 formation actuelle&amp;nbsp;&lt;br&gt;- lieu et établissement&lt;br&gt;&lt;br&gt;Sous titre 2 formation plus récente&amp;nbsp;&lt;br style=&quot;border-color: var(--border-color);&quot;&gt;- lieu et établissement" style="text;html=1;points=[];align=left;verticalAlign=top;spacingTop=-4;fontSize=15;fontFamily=Verdana" vertex="1" parent="7026571954dc6520-1">
          <mxGeometry x="543" y="665" width="513" height="145" as="geometry" />
        </mxCell>
        <mxCell id="t-0MSepDz_Ys8Jjh8UIl-27" value="" style="rounded=0;whiteSpace=wrap;html=1;" vertex="1" parent="7026571954dc6520-1">
          <mxGeometry x="17.5" y="825" width="1042.5" height="75" as="geometry" />
        </mxCell>
        <mxCell id="t-0MSepDz_Ys8Jjh8UIl-29" value="&lt;font style=&quot;&quot;&gt;&lt;span style=&quot;font-size: 18px;&quot;&gt;Pied de page footer :&lt;/span&gt;&lt;br&gt;&lt;font style=&quot;font-size: 16px;&quot;&gt;Creative commons de ma page&lt;/font&gt;&lt;/font&gt;&lt;font style=&quot;font-size: 18px;&quot;&gt;&amp;nbsp;&lt;br&gt;&lt;/font&gt;" style="text;html=1;strokeColor=none;fillColor=none;align=center;verticalAlign=middle;whiteSpace=wrap;rounded=0;" vertex="1" parent="7026571954dc6520-1">
          <mxGeometry x="308.5" y="838.75" width="455" height="47.5" as="geometry" />
        </mxCell>
        <mxCell id="t-0MSepDz_Ys8Jjh8UIl-28" value="Text" style="text;html=1;strokeColor=none;fillColor=none;align=center;verticalAlign=middle;whiteSpace=wrap;rounded=0;" vertex="1" parent="1">
          <mxGeometry x="540" y="770" width="60" height="30" as="geometry" />
        </mxCell>
      </root>
    </mxGraphModel>
  </diagram>
</mxfile>
